<mxfile host="app.diagrams.net" modified="2022-11-08T11:48:10.841Z" agent="5.0 (Windows NT 10.0; Win64; x64) AppleWebKit/537.36 (KHTML, like Gecko) Chrome/107.0.0.0 Safari/537.36" etag="0T45YsaDpby9NIMty9p6" version="20.5.3" type="github">
  <diagram id="d5x8dhA6pELKXG6CopPJ" name="Trang-1">
    <mxGraphModel dx="1038" dy="1786" grid="1" gridSize="10" guides="1" tooltips="1" connect="1" arrows="1" fold="1" page="1" pageScale="1" pageWidth="1027" pageHeight="1169" math="0" shadow="0">
      <root>
        <mxCell id="0" />
        <mxCell id="1" parent="0" />
        <mxCell id="j6syIAILMl9BRk4zmWQf-1" value="Oбсуждение и планирование" style="rounded=0;whiteSpace=wrap;html=1;" parent="1" vertex="1">
          <mxGeometry x="110" y="-1060" width="120" height="60" as="geometry" />
        </mxCell>
        <mxCell id="YUuOF8b1A90oDXZzr_tI-1" value="" style="endArrow=classic;html=1;rounded=0;" edge="1" parent="1">
          <mxGeometry width="50" height="50" relative="1" as="geometry">
            <mxPoint x="40" y="-1040" as="sourcePoint" />
            <mxPoint x="110" y="-1040" as="targetPoint" />
          </mxGeometry>
        </mxCell>
        <mxCell id="YUuOF8b1A90oDXZzr_tI-2" value="" style="endArrow=classic;html=1;rounded=0;entryX=0.427;entryY=0;entryDx=0;entryDy=0;entryPerimeter=0;" edge="1" parent="1" target="j6syIAILMl9BRk4zmWQf-1">
          <mxGeometry width="50" height="50" relative="1" as="geometry">
            <mxPoint x="160" y="-1120" as="sourcePoint" />
            <mxPoint x="440" y="-870" as="targetPoint" />
          </mxGeometry>
        </mxCell>
        <mxCell id="YUuOF8b1A90oDXZzr_tI-5" value="Дизайн и интерфейс приложения" style="rounded=0;whiteSpace=wrap;html=1;" vertex="1" parent="1">
          <mxGeometry x="310" y="-990" width="120" height="60" as="geometry" />
        </mxCell>
        <mxCell id="YUuOF8b1A90oDXZzr_tI-6" value="" style="endArrow=classic;html=1;rounded=1;exitX=1;exitY=0.5;exitDx=0;exitDy=0;entryX=-0.007;entryY=0.373;entryDx=0;entryDy=0;entryPerimeter=0;" edge="1" parent="1" source="j6syIAILMl9BRk4zmWQf-1" target="YUuOF8b1A90oDXZzr_tI-5">
          <mxGeometry width="50" height="50" relative="1" as="geometry">
            <mxPoint x="390" y="-820" as="sourcePoint" />
            <mxPoint x="440" y="-870" as="targetPoint" />
            <Array as="points">
              <mxPoint x="270" y="-1030" />
              <mxPoint x="270" y="-968" />
            </Array>
          </mxGeometry>
        </mxCell>
        <mxCell id="YUuOF8b1A90oDXZzr_tI-8" value="" style="endArrow=classic;html=1;rounded=1;" edge="1" parent="1">
          <mxGeometry width="50" height="50" relative="1" as="geometry">
            <mxPoint x="369.5" y="-1110" as="sourcePoint" />
            <mxPoint x="369.5" y="-990" as="targetPoint" />
          </mxGeometry>
        </mxCell>
        <mxCell id="YUuOF8b1A90oDXZzr_tI-9" value="Дизайн и интерфейс приложения" style="rounded=0;whiteSpace=wrap;html=1;" vertex="1" parent="1">
          <mxGeometry x="460" y="-990" width="120" height="60" as="geometry" />
        </mxCell>
        <mxCell id="YUuOF8b1A90oDXZzr_tI-12" value="" style="endArrow=none;html=1;rounded=0;" edge="1" parent="1">
          <mxGeometry width="50" height="50" relative="1" as="geometry">
            <mxPoint x="160" y="-1110" as="sourcePoint" />
            <mxPoint x="370" y="-1110" as="targetPoint" />
          </mxGeometry>
        </mxCell>
      </root>
    </mxGraphModel>
  </diagram>
</mxfile>
